<svg xmlns="http://www.w3.org/2000/svg" width="33.935" height="36.78" viewBox="0 0 33.935 36.78">
  <g id="XaTCpK" transform="translate(-128.618 -21.41)">
    <g id="Group_858" data-name="Group 858" transform="translate(128.618 21.41)">
      <path id="Path_1036" data-name="Path 1036" d="M128.618,27.338a.423.423,0,0,0,.049-.138,4.485,4.485,0,0,1,1.521-3,13.343,13.343,0,0,1,2.862-2.338,2.791,2.791,0,0,1,2.7-.2,11.145,11.145,0,0,1,2.054,1.161,2.46,2.46,0,0,1,.672,1.038,24.537,24.537,0,0,1,1.333,4.922c.126.654.2,1.319.327,1.972a1.867,1.867,0,0,1-.366,1.573,16.564,16.564,0,0,1-1.332,1.488c-.524.522-1.082,1.012-1.644,1.5a.431.431,0,0,0-.154.563,22.9,22.9,0,0,0,2.723,4.994,29,29,0,0,0,8.411,7.932c.923.586.926.555,1.754-.149.724-.616,1.462-1.219,2.212-1.8a2.6,2.6,0,0,1,2.508-.455,41.677,41.677,0,0,1,5.871,2.14A3.394,3.394,0,0,1,162,50.468a4.819,4.819,0,0,1,.517,2.539,3.107,3.107,0,0,1-.506,1.287,11.7,11.7,0,0,1-3.734,3.329,13.157,13.157,0,0,1-1.4.567h-1.706a1.921,1.921,0,0,0-.284-.066,25.244,25.244,0,0,1-8.649-2.416A30.333,30.333,0,0,1,132.9,43.323a31.031,31.031,0,0,1-4.068-11.931c-.077-.609-.141-1.22-.212-1.831Z" transform="translate(-128.618 -21.41)" fill="#1a5fa8"/>
    </g>
  </g>
</svg>
