<svg id="Group_8709" data-name="Group 8709" xmlns="http://www.w3.org/2000/svg" width="425.308" height="44.54" viewBox="0 0 425.308 44.54">
  <ellipse id="Ellipse_21" data-name="Ellipse 21" cx="18.707" cy="17.928" rx="18.707" ry="17.928" transform="translate(387.487 6.429)" fill="#fff"/>
  <g id="Group_856" data-name="Group 856" transform="translate(0 0)">
    <g id="Group_847" data-name="Group 847">
      <g id="Group_827" data-name="Group 827">
        <g id="Group_811" data-name="Group 811" transform="translate(266.241 5.208)">
          <path id="Path_998" data-name="Path 998" d="M1971.976,531.649V518.034h-9.289v16.309l9.289-2.694Z" transform="translate(-1962.687 -518.034)" fill="#fff"/>
        </g>
        <g id="Group_812" data-name="Group 812" transform="translate(279.436 5.208)">
          <path id="Path_999" data-name="Path 999" d="M2000.2,543.294v-25.26h-9.27v25.26Z" transform="translate(-1990.931 -518.034)" fill="#fff"/>
        </g>
        <g id="Group_813" data-name="Group 813" transform="translate(291.866)">
          <path id="Path_1000" data-name="Path 1000" d="M2037.271,517.025v-5H2026.3v-5.208h-8.877v11.99h10.2l-6.666,18.478h9.955l6.351-20.26Z" transform="translate(-2017.426 -506.818)" fill="#fff"/>
        </g>
        <g id="Group_814" data-name="Group 814" transform="translate(322.167 5.208)">
          <path id="Path_1001" data-name="Path 1001" d="M2091.037,531.649V518.034h-9.279v16.309l9.279-2.694Z" transform="translate(-2081.758 -518.034)" fill="#fff"/>
        </g>
        <g id="Group_815" data-name="Group 815" transform="translate(333.817 4.57)">
          <path id="Path_1002" data-name="Path 1002" d="M2133,529.563c0-6.356-1.658-12.9-8.483-12.9-5.14,0-6.78,6.459-6.78,6.459a48.87,48.87,0,0,0-1.246-5.821h-9.638s2.131,6.207,2.285,9.479c.124,2.69-1.293,15.781-1.293,15.781h9.326l.761-13.091c.156-2.69,1.4-6.01,3.214-6.01,1.963,0,2.573,2.595,2.573,5.919,0,5.865-1.115,7.417-2.529,7.417a2.618,2.618,0,0,1-1.611-.632v5.771s1.286,1.061,5.02,1.061c6.2,0,8.4-6.833,8.4-13.433Z" transform="translate(-2106.851 -516.66)" fill="#fff"/>
        </g>
        <g id="Group_816" data-name="Group 816" transform="translate(361.184 5.208)">
          <path id="Path_1003" data-name="Path 1003" d="M2184.545,543.294V528.182c0-8.375-3.973-10.148-9.92-10.148h-8.835v6.782h6.787c2,0,2.685.436,2.685,3.517v14.961Z" transform="translate(-2165.791 -518.034)" fill="#fff"/>
        </g>
        <g id="Group_817" data-name="Group 817" transform="translate(0 5.298)">
          <path id="Path_1004" data-name="Path 1004" d="M1416.238,543.5V528.386c0-8.378-3.928-10.157-9.877-10.157h-13.489v6.788h11.082c2.333,0,3.02,1.107,3.02,3.99v14.5Zm-14.13,0v-14.5l-9.321,2.272V543.5Z" transform="translate(-1392.788 -518.229)" fill="#fff" fill-rule="evenodd"/>
        </g>
        <g id="Group_818" data-name="Group 818" transform="translate(26.117 4.672)">
          <path id="Path_1005" data-name="Path 1005" d="M1475.181,529.78c0-6.354-1.638-12.9-8.475-12.9-5.137,0-6.781,6.446-6.781,6.446a47.256,47.256,0,0,0-1.246-5.819h-9.641s2.131,6.206,2.294,9.489c.111,2.686-1.286,15.784-1.286,15.784h9.322l.756-13.1c.16-2.686,1.4-6.007,3.215-6.007,1.969,0,2.572,2.593,2.572,5.911,0,5.881-1.13,7.417-2.535,7.417a2.591,2.591,0,0,1-1.6-.633v5.785s1.28,1.058,5.021,1.058c6.174,0,8.384-6.844,8.384-13.432Z" transform="translate(-1449.038 -516.879)" fill="#fff"/>
        </g>
        <g id="Group_819" data-name="Group 819" transform="translate(55.487 5.298)">
          <path id="Path_1006" data-name="Path 1006" d="M1536.908,523.716v-5.487h-24.616v6.788h15.3L1523.58,543.5h9.52l3.808-19.786Zm-15.342,30.812V528.962l-9.274,2.266v23.3Z" transform="translate(-1512.292 -518.229)" fill="#fff" fill-rule="evenodd"/>
        </g>
        <g id="Group_820" data-name="Group 820" transform="translate(85.302 5.298)">
          <path id="Path_1007" data-name="Path 1007" d="M1595.383,533V518.229h-8.434v17.279l8.434-2.507Zm11.7-1.923V518.229h-8.441v12.418c0,5.679-3.616,7.7-7.507,7.7-3.779,0-7.4-2.021-7.4-7.752V518.229h-8.426v13.524c0,7.081,5.568,12.517,15.891,12.517,11.13,0,15.879-5.782,15.879-13.193Z" transform="translate(-1575.308 -518.229)" fill="#fff" fill-rule="evenodd"/>
        </g>
        <g id="Group_821" data-name="Group 821" transform="translate(121.031 5.298)">
          <path id="Path_1008" data-name="Path 1008" d="M1675.248,543.5V528.386c0-8.378-3.937-10.157-9.881-10.157h-13.5v6.788h11.089c2.323,0,3.009,1.107,3.009,3.99v14.5Zm-14.135,0v-14.5l-9.316,2.272V543.5Z" transform="translate(-1651.797 -518.229)" fill="#fff" fill-rule="evenodd"/>
        </g>
        <g id="Group_822" data-name="Group 822" transform="translate(156.797 5.298)">
          <path id="Path_1009" data-name="Path 1009" d="M1752.942,523.716v-5.487h-24.614v6.788h15.292l-4.013,18.485h9.521l3.815-19.786ZM1737.6,554.528V528.962l-9.273,2.266v23.3Z" transform="translate(-1728.328 -518.229)" fill="#fff" fill-rule="evenodd"/>
        </g>
        <g id="Group_823" data-name="Group 823" transform="translate(184.768 5.298)">
          <path id="Path_1010" data-name="Path 1010" d="M1797.568,543.5V518.229h-9.277V543.5Z" transform="translate(-1788.291 -518.229)" fill="#fff"/>
        </g>
        <g id="Group_824" data-name="Group 824" transform="translate(198.044 5.298)">
          <path id="Path_1011" data-name="Path 1011" d="M1825.99,543.5V518.229h-9.282V543.5Z" transform="translate(-1816.708 -518.229)" fill="#fff"/>
        </g>
        <g id="Group_825" data-name="Group 825" transform="translate(211.244 5.298)">
          <path id="Path_1012" data-name="Path 1012" d="M1854.228,531.854V518.229h-9.264v16.317l9.264-2.692Z" transform="translate(-1844.964 -518.229)" fill="#fff"/>
        </g>
        <g id="Group_826" data-name="Group 826" transform="translate(224.434 5.298)">
          <path id="Path_1013" data-name="Path 1013" d="M1893.086,533V518.229h-8.437v17.279l8.437-2.507Zm11.686-1.923V518.229h-8.428v12.418c0,5.679-3.625,7.7-7.515,7.7-3.772,0-7.39-2.021-7.39-7.752V518.229h-8.433v13.524c0,7.081,5.576,12.517,15.9,12.517,11.125,0,15.863-5.782,15.863-13.193Z" transform="translate(-1873.007 -518.229)" fill="#fff" fill-rule="evenodd"/>
        </g>
      </g>
      <g id="Group_846" data-name="Group 846" transform="translate(171.999 33.554)">
        <g id="Group_828" data-name="Group 828" transform="translate(0 2.233)">
          <path id="Path_1014" data-name="Path 1014" d="M1763.592,590.279h-1.056v-3.65a2.385,2.385,0,0,0-.288-1.3,1.281,1.281,0,0,0-1.163-.535h-2.748v-.9h2.748a2.377,2.377,0,0,1,1.907.742,2.982,2.982,0,0,1,.6,2.006Zm-4.2,0h-1.057v-3.3l1.057-.62Z" transform="translate(-1758.337 -583.894)" fill="#fff"/>
        </g>
        <g id="Group_829" data-name="Group 829" transform="translate(11.89 2.233)">
          <path id="Path_1015" data-name="Path 1015" d="M1786.775,590.279h-2.831v-.9h1.775v-3.689a1.141,1.141,0,0,0-.144-.644.671.671,0,0,0-.588-.254h-1.043v-.9h1.163a1.586,1.586,0,0,1,1.254.469,1.967,1.967,0,0,1,.413,1.343Z" transform="translate(-1783.945 -583.894)" fill="#fff"/>
        </g>
        <g id="Group_830" data-name="Group 830" transform="translate(21.608 2.233)">
          <path id="Path_1016" data-name="Path 1016" d="M1805.929,587.391l-1.055.585v-4.082h1.055Z" transform="translate(-1804.874 -583.894)" fill="#fff"/>
        </g>
        <g id="Group_831" data-name="Group 831" transform="translate(29.033 2.233)">
          <path id="Path_1017" data-name="Path 1017" d="M1825.761,584.793h-.888v5.486h-1.055v-5.486h-2.952v-.9h4.9Z" transform="translate(-1820.866 -583.894)" fill="#fff"/>
        </g>
        <g id="Group_832" data-name="Group 832" transform="translate(40.155 2.088)">
          <path id="Path_1018" data-name="Path 1018" d="M1851.3,586.883a3.911,3.911,0,0,1-.649,2.379,2.531,2.531,0,0,1-2.17.972,3.11,3.11,0,0,1-.889-.123v-1.019a3.425,3.425,0,0,0,.48.191,1.553,1.553,0,0,0,.431.052,1.47,1.47,0,0,0,1.369-.778,3.274,3.274,0,0,0,.372-1.65,3.49,3.49,0,0,0-.324-1.6,1.41,1.41,0,0,0-2.554-.026,5.11,5.11,0,0,0-.515,1.513l-.192,1.03-.434,2.289h-1.092q.121-.584.35-1.748c.127-.67.232-1.258.313-1.76l.011-.121a5.4,5.4,0,0,0-.54-1.748c-.151-.332-.3-.664-.444-1h1.153c.19.542.387,1.084.586,1.626a2.939,2.939,0,0,1,.744-1.224,1.848,1.848,0,0,1,1.3-.559,2.411,2.411,0,0,1,2.1.97A3.951,3.951,0,0,1,1851.3,586.883Z" transform="translate(-1844.82 -583.582)" fill="#fff"/>
        </g>
        <g id="Group_833" data-name="Group 833" transform="translate(52.956 2.233)">
          <path id="Path_1019" data-name="Path 1019" d="M1877.584,590.279h-5.195v-.9h3.395v-2.75a2.473,2.473,0,0,0-.276-1.352,1.394,1.394,0,0,0-1.235-.486h-1.884v-.9h1.872a2.586,2.586,0,0,1,1.973.651,2.914,2.914,0,0,1,.607,2.038v2.8h.743Z" transform="translate(-1872.39 -583.894)" fill="#fff"/>
        </g>
        <g id="Group_834" data-name="Group 834" transform="translate(72.019)">
          <path id="Path_1020" data-name="Path 1020" d="M1918.295,582.229l-2.544,5.474h-1.139l2.521-5.486h-3.685v-3.132h1.055v2.233h3.792Z" transform="translate(-1913.447 -579.085)" fill="#fff"/>
        </g>
        <g id="Group_835" data-name="Group 835" transform="translate(83.452 2.233)">
          <path id="Path_1021" data-name="Path 1021" d="M1939.126,590.279h-1.055v-6.385h1.055Z" transform="translate(-1938.071 -583.894)" fill="#fff"/>
        </g>
        <g id="Group_836" data-name="Group 836" transform="translate(91.095 2.233)">
          <path id="Path_1022" data-name="Path 1022" d="M1957.649,584.793h-.225a.694.694,0,0,0-.5.207,1.376,1.376,0,0,0-.3.456,2.286,2.286,0,0,0-.172.65,6.993,6.993,0,0,0-.042.816v3.357h-1.055v-2.931a4.141,4.141,0,0,1,.2-1.448,2.26,2.26,0,0,1,.923-1.107h-1.956v-.9h3.119Z" transform="translate(-1954.53 -583.894)" fill="#fff"/>
        </g>
        <g id="Group_837" data-name="Group 837" transform="translate(100.669 2.233)">
          <path id="Path_1023" data-name="Path 1023" d="M1980.405,590.279h-1.057v-3.65a2.378,2.378,0,0,0-.287-1.3,1.28,1.28,0,0,0-1.163-.535h-2.747v-.9h2.747a2.376,2.376,0,0,1,1.907.742,2.981,2.981,0,0,1,.6,2.006Zm-4.2,0h-1.055v-3.3l1.055-.62Z" transform="translate(-1975.151 -583.894)" fill="#fff"/>
        </g>
        <g id="Group_838" data-name="Group 838" transform="translate(120.417 2.233)">
          <path id="Path_1024" data-name="Path 1024" d="M2024.113,590.279h-1.055v-3.65a2.474,2.474,0,0,0-.278-1.386,1.534,1.534,0,0,0-1.294-.449h-1.512v4.039a1.454,1.454,0,0,1-.439,1.138,1.7,1.7,0,0,1-1.181.395,2.766,2.766,0,0,1-.384-.019,1.48,1.48,0,0,1-.286-.079v-.935a.677.677,0,0,0,.238.1,1.2,1.2,0,0,0,.277.033.641.641,0,0,0,.72-.729v-3.944h-1.055v-.9h3.669a2.592,2.592,0,0,1,2,.646,3.116,3.116,0,0,1,.576,2.1Z" transform="translate(-2017.683 -583.894)" fill="#fff"/>
        </g>
        <g id="Group_839" data-name="Group 839" transform="translate(133.732 2.233)">
          <path id="Path_1025" data-name="Path 1025" d="M2047.415,590.279h-1.055v-6.385h1.055Z" transform="translate(-2046.36 -583.894)" fill="#fff"/>
        </g>
        <g id="Group_840" data-name="Group 840" transform="translate(141.735 2.233)">
          <path id="Path_1026" data-name="Path 1026" d="M2064.651,587.391l-1.055.585v-4.082h1.055Z" transform="translate(-2063.596 -583.894)" fill="#fff"/>
        </g>
        <g id="Group_841" data-name="Group 841" transform="translate(149.425 2.233)">
          <path id="Path_1027" data-name="Path 1027" d="M2082.988,590.279h-2.831v-.9h1.776v-3.689a1.13,1.13,0,0,0-.145-.644.669.669,0,0,0-.588-.254h-1.044v-.9h1.164a1.583,1.583,0,0,1,1.253.469,1.969,1.969,0,0,1,.413,1.343Z" transform="translate(-2080.157 -583.894)" fill="#fff"/>
        </g>
        <g id="Group_842" data-name="Group 842" transform="translate(159.059 2.233)">
          <path id="Path_1028" data-name="Path 1028" d="M2106.865,584.96l-2.269,5.315-1.111,0,2.3-5.486h-4.882v-.9h5.962Zm-4.734,7.686h-1.055v-5.913l1.055-.509Z" transform="translate(-2100.908 -583.894)" fill="#fff"/>
        </g>
        <g id="Group_843" data-name="Group 843" transform="translate(171.583 2.233)">
          <path id="Path_1029" data-name="Path 1029" d="M2133.135,590.279h-1.056v-3.65a2.385,2.385,0,0,0-.287-1.3,1.283,1.283,0,0,0-1.166-.535h-2.746v-.9h2.746a2.374,2.374,0,0,1,1.908.742,2.969,2.969,0,0,1,.6,2.006Zm-4.2,0h-1.057v-3.3l1.057-.62Z" transform="translate(-2127.881 -583.894)" fill="#fff"/>
        </g>
        <g id="Group_844" data-name="Group 844" transform="translate(191.26)">
          <path id="Path_1030" data-name="Path 1030" d="M2175.106,582.229l-2.544,5.474h-1.141l2.523-5.486h-3.685v-3.132h1.055v2.233h3.792Z" transform="translate(-2170.259 -579.085)" fill="#fff"/>
        </g>
        <g id="Group_845" data-name="Group 845" transform="translate(202.631 2.233)">
          <path id="Path_1031" data-name="Path 1031" d="M2200.5,587.215a3.44,3.44,0,0,1-.78,2.284,2.645,2.645,0,0,1-2.135,1,2.765,2.765,0,0,1-2.1-.766,2.989,2.989,0,0,1-.732-2.152v-3.685h2.82a2.692,2.692,0,0,1,2.207.949A3.62,3.62,0,0,1,2200.5,587.215Zm-1.055-.117a2.764,2.764,0,0,0-.42-1.6,1.644,1.644,0,0,0-1.439-.7h-1.775v2.779a2.31,2.31,0,0,0,.437,1.469,1.568,1.568,0,0,0,1.315.558,1.613,1.613,0,0,0,1.475-.776A3.224,3.224,0,0,0,2199.442,587.1Z" transform="translate(-2194.75 -583.894)" fill="#fff"/>
        </g>
      </g>
    </g>
    <g id="Group_850" data-name="Group 850" transform="translate(386.838 5.449)">
      <g id="Group_848" data-name="Group 848" transform="translate(16.484 7.808)">
        <path id="Path_1032" data-name="Path 1032" d="M2262.047,541.2c0-2.017-2.4-5.073-5.5-5.828v15.27c0,2.017,2.4,5.073,5.5,5.829Z" transform="translate(-2256.546 -535.37)" fill="#0a66ae"/>
      </g>
      <g id="Group_849" data-name="Group 849" transform="translate(0)">
        <path id="Path_1033" data-name="Path 1033" d="M2254.925,518.553h-29.293c-4.588,0-4.588,4.588-4.588,4.588v27.54c0,4.588,4.588,4.588,4.588,4.588h29.293c4.588,0,4.588-4.588,4.588-4.588V523.14C2259.513,518.553,2254.925,518.553,2254.925,518.553Zm-.672,23.078c0,3.991-4.514,8.866-9.781,8.866h-.012l-.016,0c-5.279-.017-9.777-4.88-9.777-8.864V526.365c-3.107.763-5.5,3.811-5.5,5.824v9.565a1.43,1.43,0,1,1-2.861,0V532.19c0-3.991,4.513-8.866,9.781-8.866h.02c5.283.012,9.785,4.879,9.785,8.865v15.266c3.107-.763,5.5-3.811,5.5-5.824v-9.4a1.431,1.431,0,0,1,2.862,0Z" transform="translate(-2221.044 -518.553)" fill="#0a66ae"/>
      </g>
    </g>
  </g>
</svg>
