<svg id="Group_16154" data-name="Group 16154" xmlns="http://www.w3.org/2000/svg" xmlns:xlink="http://www.w3.org/1999/xlink" width="311.697" height="101.315" viewBox="0 0 311.697 101.315">
  <defs>
    <clipPath id="clip-path">
      <rect id="Rectangle_3043" data-name="Rectangle 3043" width="311.697" height="101.315" fill="none"/>
    </clipPath>
  </defs>
  <g id="Group_16153" data-name="Group 16153" clip-path="url(#clip-path)">
    <path id="Path_13067" data-name="Path 13067" d="M6.166,16.435a1.723,1.723,0,0,1,1.572.977L21.073,41.15l3.906-3.316a10.8,10.8,0,0,0,3.651-8.026L29.4,17.5q0-1.061,1.232-1.061h4.246a1.015,1.015,0,0,1,.721.337,1.2,1.2,0,0,1,.34.977l-.89,9.81a40.9,40.9,0,0,1-1.274,8.366,13.392,13.392,0,0,1-4.459,5.562L23.832,45.9,36.021,67.391a1.1,1.1,0,0,1,.042,1.061.629.629,0,0,1-.553.426H30.457a1.791,1.791,0,0,1-.934-.253,2.186,2.186,0,0,1-.893-.977L12.537,38.855,9.308,41.488q-3.482,2.8-3.483,8.708v17.2q0,1.489-1.1,1.487H.986q-.977,0-.977-1.487V50.108Q.009,41.276,6,36.689l3.651-2.76L.433,17.749a.85.85,0,0,1,0-.893.8.8,0,0,1,.723-.422Z" transform="translate(-0.001 -1.996)" fill="#d7282f"/>
    <path id="Path_13068" data-name="Path 13068" d="M66.991,65.653a3.753,3.753,0,0,1-.424.848,1.054,1.054,0,0,1-.807.382H61.854a1.28,1.28,0,0,1-.935-.382.666.666,0,0,1-.255-.848L79.18,25.562a8.486,8.486,0,0,0,.679-2.334,2.193,2.193,0,0,0-.51-1.909,3.268,3.268,0,0,0-2.42-.893H51.7a1.07,1.07,0,0,1-1.232-1.19V1.229A1.087,1.087,0,0,1,51.7,0h3.737Q56.5,0,56.629,1.229v13.21h21.32q4.626,0,6.624,3.227,2.716,4.37-.255,10.7Z" transform="translate(-6.13 0)" fill="#d7282f"/>
    <path id="Path_13069" data-name="Path 13069" d="M104.947,67.555a1.719,1.719,0,0,1-.426.848.968.968,0,0,1-.806.382l-3.653-.084a1.451,1.451,0,0,1-.935-.342.744.744,0,0,1-.253-.8l9.468-35.714L98.067,17.828a.983.983,0,0,1-.042-.937.816.816,0,0,1,.763-.55h5.139a1.4,1.4,0,0,1,1.019.422l5.9,8.114A15.01,15.01,0,0,1,116.58,17.7a12.261,12.261,0,0,1,6.8-2.037A13.98,13.98,0,0,1,134.8,20.8a16.2,16.2,0,0,1,2.845,5.9,39.281,39.281,0,0,1,1.061,9.979V67.3q0,1.489-1.4,1.487H118.959a1.23,1.23,0,0,1-.892-.382,1.249,1.249,0,0,1-.34-.848V63.9a1.071,1.071,0,0,1,1.232-1.19h13.929V37.234a33.591,33.591,0,0,0-.763-8.025,12.81,12.81,0,0,0-1.869-4.079q-2.252-3.31-7.051-3.311-6.411,0-8.7,8.872Z" transform="translate(-11.894 -1.902)" fill="#d7282f"/>
    <path id="Path_13070" data-name="Path 13070" d="M176.5,22.423h-20a1.071,1.071,0,0,1-1.232-1.19V17.665a1.088,1.088,0,0,1,1.232-1.23h20.341q6.625,0,9.641,3.311,3.14,3.611,3.143,10.617V67.649a1.089,1.089,0,0,1-1.232,1.23h-3.314a1.107,1.107,0,0,1-1.274-1.23V30.107q0-4.371-1.911-6.286-1.527-1.4-5.393-1.4M160.577,36.436a1.089,1.089,0,0,1,1.232,1.23V67.649a1.089,1.089,0,0,1-1.232,1.23H157.01a1.236,1.236,0,0,1-.85-.342,1.212,1.212,0,0,1-.382-.888V37.666a1.227,1.227,0,0,1,.382-.893,1.251,1.251,0,0,1,.85-.337Z" transform="translate(-18.858 -1.996)" fill="#d7282f"/>
    <path id="Path_13071" data-name="Path 13071" d="M243.613,67.649a1.212,1.212,0,0,1-.382.888,1.239,1.239,0,0,1-.85.342h-3.4a1.069,1.069,0,0,1-1.19-1.23V22.422h-7.389a1.071,1.071,0,0,1-1.232-1.19V17.665a1.088,1.088,0,0,1,1.232-1.23h11.974a1.088,1.088,0,0,1,1.232,1.23Z" transform="translate(-27.835 -1.996)" fill="#d7282f"/>
    <path id="Path_13072" data-name="Path 13072" d="M292.293,30.106q0-4.453-1.826-6.285-1.529-1.4-5.393-1.4h-17.5l.977,40.3v4.927a1.16,1.16,0,0,1-.424.888,1.4,1.4,0,0,1-.892.341h-11.21a1.242,1.242,0,0,1-.85-.341,1.213,1.213,0,0,1-.382-.888V64.08a1.215,1.215,0,0,1,.382-.893,1.184,1.184,0,0,1,.85-.381h6.583l-.935-40.383V17.665a1.069,1.069,0,0,1,1.188-1.23h22.55q6.622,0,9.639,3.311,3.056,3.4,3.058,10.618V67.649a1.088,1.088,0,0,1-1.233,1.229h-3.4a1.069,1.069,0,0,1-1.19-1.229Z" transform="translate(-30.946 -1.996)" fill="#d7282f"/>
    <path id="Path_13073" data-name="Path 13073" d="M336.789,22.423h-20a1.071,1.071,0,0,1-1.232-1.19V17.665a1.088,1.088,0,0,1,1.232-1.23h20.341q6.625,0,9.641,3.311,3.14,3.611,3.143,10.617V67.649a1.089,1.089,0,0,1-1.232,1.23h-3.314a1.107,1.107,0,0,1-1.274-1.23V30.107q0-4.371-1.911-6.286-1.527-1.4-5.393-1.4M320.865,36.436a1.089,1.089,0,0,1,1.232,1.23V67.649a1.089,1.089,0,0,1-1.232,1.23H317.3a1.236,1.236,0,0,1-.85-.342,1.212,1.212,0,0,1-.382-.888V37.666a1.227,1.227,0,0,1,.382-.893,1.251,1.251,0,0,1,.85-.337Z" transform="translate(-38.326 -1.996)" fill="#d7282f"/>
    <path id="Path_13074" data-name="Path 13074" d="M4.7,92.5H.273C.09,92.5,0,92.379,0,92.134V91.049c0-.253.09-.378.273-.378h4.5a2.373,2.373,0,0,1,2.136,1.012,6.115,6.115,0,0,1,.695,3.239V106.3c0,.253-.09.378-.273.378H6.6c-.186,0-.281-.125-.281-.378V94.846a3.333,3.333,0,0,0-.424-1.92A1.439,1.439,0,0,0,4.7,92.5M1.175,96.775c.181,0,.273.125.273.378V106.3c0,.253-.092.378-.273.378H.386a.244.244,0,0,1-.189-.1.451.451,0,0,1-.084-.273V97.153A.451.451,0,0,1,.2,96.88a.244.244,0,0,1,.189-.1Z" transform="translate(0 -11.012)" fill="#13110c"/>
    <path id="Path_13075" data-name="Path 13075" d="M12.339,106.271a.639.639,0,0,1-.092.261.2.2,0,0,1-.179.117l-.809-.024a.284.284,0,0,1-.207-.1.29.29,0,0,1-.056-.25l2.1-10.9L10.816,91.1a.4.4,0,0,1-.008-.286q.054-.169.169-.169h1.138a.276.276,0,0,1,.225.128l1.308,2.476a4.609,4.609,0,0,1,1.269-2.19,2.224,2.224,0,0,1,1.5-.623A2.841,2.841,0,0,1,18.952,92a5.861,5.861,0,0,1,.629,1.8,16.391,16.391,0,0,1,.235,3.046v9.343c0,.3-.1.454-.309.454H15.444a.245.245,0,0,1-.2-.117.468.468,0,0,1-.076-.261v-1.113c0-.242.09-.362.273-.362h3.084V97.019a14.057,14.057,0,0,0-.169-2.451,4.632,4.632,0,0,0-.414-1.242,1.642,1.642,0,0,0-1.561-1.012q-1.419,0-1.929,2.709Z" transform="translate(-1.31 -10.984)" fill="#13110c"/>
    <path id="Path_13076" data-name="Path 13076" d="M23.693,92.5c-.181,0-.271-.12-.271-.365V91.021c0-.234.09-.35.271-.35h6.434a1.492,1.492,0,0,1,1.458.984,5.238,5.238,0,0,1-.037,3.292l-3,11.353a.949.949,0,0,1-.1.261.2.2,0,0,1-.169.117h-.866a.278.278,0,0,1-.215-.117.281.281,0,0,1-.058-.261l3.237-12.233a3.781,3.781,0,0,0,.141-.712.819.819,0,0,0-.1-.586.662.662,0,0,0-.537-.27Zm1.035,4.352c.183,0,.273.128.273.378v14.737c0,.241-.09.361-.273.361h-.846c-.181,0-.273-.12-.273-.361V97.229c0-.25.092-.378.273-.378Z" transform="translate(-2.845 -11.012)" fill="#13110c"/>
    <path id="Path_13077" data-name="Path 13077" d="M37.385,106.7c-.069.02-.145-.016-.225-.1a.543.543,0,0,1-.133-.273l-2.389-15.28c-.025-.253.061-.378.263-.378h.81c.145,0,.241.133.291.4l1.138,7.322.979-.635a3.221,3.221,0,0,0,1.045-1.089,4.41,4.41,0,0,0,.292-1.893V91.048c0-.253.08-.378.242-.378h.866a.272.272,0,0,1,.207.117.433.433,0,0,1,.084.261v3.629A6.4,6.4,0,0,1,40.3,97.6a3.606,3.606,0,0,1-.866,1.037c-.157.141-.337.286-.545.442-.139.1-.329.229-.575.4l-.884.611.7,4.485a7.312,7.312,0,0,0,2.775-1.274,6.652,6.652,0,0,0,3.028-5.6l.347-6.659c.026-.253.106-.378.245-.378h.828c.194,0,.291.133.291.4l-.273,6.209q-.244,5.557-4.156,7.905a14.905,14.905,0,0,1-2.333,1.205,6.458,6.458,0,0,1-.705.209c-.144.024-.333.052-.564.076Z" transform="translate(-4.207 -11.012)" fill="#13110c"/>
    <path id="Path_13078" data-name="Path 13078" d="M53.74,92.5H49.311c-.183,0-.273-.12-.273-.365V91.049c0-.253.09-.378.273-.378h4.5a2.373,2.373,0,0,1,2.136,1.012,6.115,6.115,0,0,1,.695,3.239V106.3c0,.253-.09.378-.273.378h-.734c-.186,0-.281-.125-.281-.378V94.846a3.333,3.333,0,0,0-.424-1.92A1.439,1.439,0,0,0,53.74,92.5m-3.526,4.276c.181,0,.273.125.273.378V106.3c0,.253-.092.378-.273.378h-.79a.244.244,0,0,1-.189-.1.451.451,0,0,1-.084-.273V97.153a.451.451,0,0,1,.084-.273.244.244,0,0,1,.189-.1Z" transform="translate(-5.956 -11.012)" fill="#13110c"/>
    <path id="Path_13079" data-name="Path 13079" d="M66.2,92.5c-.181,0-.272-.12-.272-.365V91.021c0-.234.091-.35.272-.35h6.434a1.491,1.491,0,0,1,1.457.984,5.238,5.238,0,0,1-.037,3.292l-3,11.353a.943.943,0,0,1-.105.261.2.2,0,0,1-.169.117h-.866a.309.309,0,0,1-.272-.378l3.237-12.233a3.793,3.793,0,0,0,.141-.712.814.814,0,0,0-.105-.586.661.661,0,0,0-.537-.27Zm1.035,4.352c.182,0,.273.128.273.378v14.737q0,.361-.273.361H66.39c-.181,0-.272-.12-.272-.361V97.229c0-.25.091-.378.272-.378Z" transform="translate(-8.008 -11.012)" fill="#13110c"/>
    <path id="Path_13080" data-name="Path 13080" d="M80.41,106.3a.451.451,0,0,1-.084.273.247.247,0,0,1-.189.1h-.751c-.177,0-.264-.125-.264-.378V92.5H77.484c-.181,0-.273-.12-.273-.365V91.049c0-.253.092-.378.273-.378h2.652c.181,0,.273.125.273.378Z" transform="translate(-9.378 -11.012)" fill="#13110c"/>
    <path id="Path_13081" data-name="Path 13081" d="M86.148,106.3a.451.451,0,0,1-.084.273.247.247,0,0,1-.189.1h-.751c-.177,0-.264-.125-.264-.378V92.5H83.222c-.181,0-.273-.12-.273-.365V91.049c0-.253.092-.378.273-.378h2.652c.181,0,.273.125.273.378Z" transform="translate(-10.075 -11.012)" fill="#13110c"/>
    <path id="Path_13082" data-name="Path 13082" d="M91.887,98.6a.458.458,0,0,1-.084.273.241.241,0,0,1-.189.1h-.751c-.2,0-.29-.124-.264-.373V92.5H88.961c-.181,0-.273-.121-.273-.366V91.048c0-.253.092-.378.273-.378h2.652a.249.249,0,0,1,.189.1.451.451,0,0,1,.084.273Z" transform="translate(-10.772 -11.012)" fill="#13110c"/>
    <path id="Path_13083" data-name="Path 13083" d="M96.937,106.7c-.069.02-.145-.016-.225-.1a.543.543,0,0,1-.133-.273L94.19,91.048c-.025-.253.061-.378.263-.378h.81c.144,0,.241.133.291.4l1.138,7.322.979-.635a3.221,3.221,0,0,0,1.045-1.089,4.41,4.41,0,0,0,.292-1.893V91.048c0-.253.08-.378.242-.378h.866a.272.272,0,0,1,.207.117.433.433,0,0,1,.084.261v3.629a6.4,6.4,0,0,1-.554,2.926,3.606,3.606,0,0,1-.866,1.037c-.157.141-.337.286-.545.442-.139.1-.329.229-.575.4l-.884.611.7,4.485a7.312,7.312,0,0,0,2.775-1.274,6.652,6.652,0,0,0,3.028-5.6l.347-6.659c.026-.253.106-.378.245-.378h.828c.194,0,.291.133.291.4l-.273,6.209q-.244,5.557-4.156,7.905a14.905,14.905,0,0,1-2.333,1.205,6.458,6.458,0,0,1-.705.209c-.144.024-.333.052-.564.076Z" transform="translate(-11.439 -11.012)" fill="#13110c"/>
    <path id="Path_13084" data-name="Path 13084" d="M116.851,98.6a.458.458,0,0,1-.084.273.241.241,0,0,1-.189.1h-.751c-.2,0-.29-.124-.264-.373V92.5h-1.638c-.181,0-.273-.121-.273-.366V91.048c0-.253.092-.378.273-.378h2.652a.249.249,0,0,1,.189.1.451.451,0,0,1,.084.273Z" transform="translate(-13.804 -11.012)" fill="#13110c"/>
    <path id="Path_13085" data-name="Path 13085" d="M122.418,106.3a.451.451,0,0,1-.084.273.247.247,0,0,1-.189.1h-.751c-.177,0-.264-.125-.264-.378V92.5h-1.638c-.181,0-.273-.12-.273-.365V91.049c0-.253.092-.378.273-.378h2.652c.181,0,.273.125.273.378Z" transform="translate(-14.48 -11.012)" fill="#13110c"/>
    <path id="Path_13086" data-name="Path 13086" d="M128.721,105.69a1.438,1.438,0,0,1-.094.261.219.219,0,0,1-.179.117h-.864a.31.31,0,0,1-.264-.378l4.1-12.233a3.284,3.284,0,0,0,.15-.712.863.863,0,0,0-.112-.586.629.629,0,0,0-.537-.27h-5.586c-.183,0-.273-.12-.273-.365V86.031c0-.25.09-.374.273-.374h.828c.156,0,.242.125.263.374v4.031h4.72a1.513,1.513,0,0,1,1.468.984,4.391,4.391,0,0,1-.058,3.267Z" transform="translate(-15.189 -10.403)" fill="#13110c"/>
    <path id="Path_13087" data-name="Path 13087" d="M144.351,98.6a.458.458,0,0,1-.084.273.241.241,0,0,1-.189.1h-.751c-.2,0-.29-.124-.264-.373V92.5h-1.638c-.181,0-.273-.121-.273-.366V91.048c0-.253.092-.378.273-.378h2.652a.249.249,0,0,1,.189.1.451.451,0,0,1,.084.273Z" transform="translate(-17.144 -11.012)" fill="#13110c"/>
    <path id="Path_13088" data-name="Path 13088" d="M148.345,106.271a.639.639,0,0,1-.092.261.2.2,0,0,1-.179.117l-.809-.024a.284.284,0,0,1-.207-.1.29.29,0,0,1-.056-.25l2.1-10.9L146.822,91.1a.4.4,0,0,1-.008-.286q.054-.169.169-.169h1.138a.276.276,0,0,1,.225.128l1.308,2.476a4.609,4.609,0,0,1,1.27-2.19,2.224,2.224,0,0,1,1.5-.623A2.841,2.841,0,0,1,154.958,92a5.86,5.86,0,0,1,.629,1.8,16.389,16.389,0,0,1,.235,3.046v9.343c0,.3-.1.454-.309.454H151.45a.245.245,0,0,1-.2-.117.468.468,0,0,1-.076-.261v-1.113c0-.242.09-.362.273-.362h3.084V97.019a14.057,14.057,0,0,0-.169-2.451,4.632,4.632,0,0,0-.414-1.242,1.642,1.642,0,0,0-1.561-1.012q-1.419,0-1.929,2.709Z" transform="translate(-17.829 -10.984)" fill="#13110c"/>
    <path id="Path_13089" data-name="Path 13089" d="M163.114,92.5h-3.79c-.183,0-.273-.12-.273-.365V91.049c0-.253.09-.378.273-.378h3.865a2.391,2.391,0,0,1,2.181.984,4.112,4.112,0,0,1,.519,1.451,11.213,11.213,0,0,1,.13,1.816V106.3c0,.253-.088.378-.263.378h-.734c-.2,0-.292-.125-.292-.378V94.846a3.341,3.341,0,0,0-.423-1.92,1.426,1.426,0,0,0-1.194-.426" transform="translate(-19.318 -11.012)" fill="#13110c"/>
    <path id="Path_13090" data-name="Path 13090" d="M182.824,94.846a3.4,3.4,0,0,0-.4-1.92,1.446,1.446,0,0,0-1.2-.426h-3.874l.217,12.3v1.5a.422.422,0,0,1-.095.273.273.273,0,0,1-.2.1h-2.484a.255.255,0,0,1-.189-.1.451.451,0,0,1-.084-.273v-1.085a.453.453,0,0,1,.084-.274.236.236,0,0,1,.189-.116h1.458L176.044,92.5V91.048c0-.253.087-.378.264-.378H181.3a2.367,2.367,0,0,1,2.134,1.013,6.038,6.038,0,0,1,.677,3.239V106.3c0,.253-.09.378-.271.378h-.753c-.175,0-.264-.125-.264-.378Z" transform="translate(-21.196 -11.012)" fill="#13110c"/>
    <path id="Path_13091" data-name="Path 13091" d="M190.585,98.6a.458.458,0,0,1-.084.273.241.241,0,0,1-.189.1h-.751c-.2,0-.29-.124-.264-.373V92.5h-1.638c-.181,0-.273-.121-.273-.366V91.048c0-.253.092-.378.273-.378h2.652a.249.249,0,0,1,.189.1.451.451,0,0,1,.084.273Z" transform="translate(-22.759 -11.012)" fill="#13110c"/>
    <path id="Path_13092" data-name="Path 13092" d="M201.409,106.3c0,.253-.078.378-.235.378h-7.834c-.156,0-.235-.125-.235-.378v-1.19c0-.193.084-.286.254-.286h5.258V94.87a3.3,3.3,0,0,0-.424-1.945,1.414,1.414,0,0,0-1.175-.426H193.4q-.253,0-.253-.337V91a.3.3,0,0,1,.112-.233.324.324,0,0,1,.215-.092h3.6a2.366,2.366,0,0,1,2.134,1.012,5.992,5.992,0,0,1,.7,3.239l-.02,9.9h1.27c.17,0,.255.1.255.309Z" transform="translate(-23.454 -11.012)" fill="#13110c"/>
    <path id="Path_13093" data-name="Path 13093" d="M205.274,106.271a.639.639,0,0,1-.092.261.2.2,0,0,1-.179.117l-.809-.024a.284.284,0,0,1-.207-.1.291.291,0,0,1-.056-.25l2.1-10.9L203.751,91.1a.4.4,0,0,1-.008-.286q.054-.169.169-.169h1.138a.276.276,0,0,1,.225.128l1.308,2.476a4.609,4.609,0,0,1,1.27-2.19,2.224,2.224,0,0,1,1.5-.623A2.841,2.841,0,0,1,211.887,92a5.861,5.861,0,0,1,.629,1.8,16.389,16.389,0,0,1,.235,3.046v9.343c0,.3-.1.454-.309.454h-4.062a.245.245,0,0,1-.2-.117.468.468,0,0,1-.076-.261v-1.113c0-.242.09-.362.273-.362h3.084V97.019a14.057,14.057,0,0,0-.169-2.451,4.631,4.631,0,0,0-.414-1.242,1.642,1.642,0,0,0-1.561-1.012q-1.419,0-1.929,2.709Z" transform="translate(-24.743 -10.984)" fill="#13110c"/>
    <rect id="Rectangle_3038" data-name="Rectangle 3038" width="4.808" height="15.883" transform="translate(196.306 79.5)" fill="#13110c"/>
    <path id="Path_13094" data-name="Path 13094" d="M246.076,106.373h-2.4V90.49h2.4Zm-4.807,0h-2.4V90.49h2.4Zm-7.213,0h-2.4V90.49h2.4Z" transform="translate(-28.135 -10.99)" fill="#13110c"/>
    <rect id="Rectangle_3039" data-name="Rectangle 3039" width="4.809" height="15.883" transform="translate(220.345 79.5)" fill="#13110c"/>
    <path id="Path_13095" data-name="Path 13095" d="M268.632,106.373h-2.4V90.49h2.4Zm-7.214,0h-2.4V90.49h2.4Z" transform="translate(-31.459 -10.99)" fill="#13110c"/>
    <rect id="Rectangle_3040" data-name="Rectangle 3040" width="4.808" height="15.883" transform="translate(239.578 79.5)" fill="#13110c"/>
    <path id="Path_13096" data-name="Path 13096" d="M295.331,106.373h-2.4V90.49h2.4Zm-4.807,0h-2.4V90.49h2.4Zm-7.212,0h-2.4V90.49h2.4Z" transform="translate(-34.118 -10.99)" fill="#13110c"/>
    <rect id="Rectangle_3041" data-name="Rectangle 3041" width="4.808" height="15.883" transform="translate(263.619 79.5)" fill="#13110c"/>
    <path id="Path_13097" data-name="Path 13097" d="M327.5,106.373h-2.4V90.49h2.4Zm-4.807,0h-2.4V90.49h2.4Zm-7.21,0h-2.4V90.49h2.4Zm-4.809,0h-2.4V90.49h2.4Z" transform="translate(-37.441 -10.99)" fill="#13110c"/>
    <rect id="Rectangle_3042" data-name="Rectangle 3042" width="4.808" height="15.883" transform="translate(292.466 79.5)" fill="#13110c"/>
    <path id="Path_13098" data-name="Path 13098" d="M353.459,106.373h-2.4V90.49h2.4Zm-7.211,0h-2.4V90.49h2.4Z" transform="translate(-41.762 -10.99)" fill="#13110c"/>
  </g>
</svg>
