<svg xmlns="http://www.w3.org/2000/svg" width="448.943" height="47.267" viewBox="0 0 448.943 47.267">
  <g id="Group_8712" data-name="Group 8712" transform="translate(-217.109 -4410.858)">
    <g id="Group_8288" data-name="Group 8288" transform="translate(626.486 4417.846)">
      <rect id="Rectangle_2807" data-name="Rectangle 2807" width="38.308" height="36.691" rx="18.345" transform="translate(0)" fill="#fff"/>
    </g>
    <g id="Group_8329" data-name="Group 8329" transform="translate(217.109 4410.858)">
      <g id="Group_8325" data-name="Group 8325">
        <g id="Group_8305" data-name="Group 8305">
          <g id="Group_8289" data-name="Group 8289" transform="translate(280.814 5.527)">
            <path id="Path_4404" data-name="Path 4404" d="M761.037,4435.818v-14.45h-9.858v17.308l9.858-2.858Z" transform="translate(-751.179 -4421.368)" fill="#d9000d"/>
          </g>
          <g id="Group_8290" data-name="Group 8290" transform="translate(294.731 5.527)">
            <path id="Path_4405" data-name="Path 4405" d="M787.485,4448.176v-26.808h-9.838v26.808Z" transform="translate(-777.648 -4421.368)" fill="#d9000d"/>
          </g>
          <g id="Group_8291" data-name="Group 8291" transform="translate(307.787)">
            <path id="Path_4406" data-name="Path 4406" d="M823.537,4421.69v-5.306H811.9v-5.527h-9.42v12.724h10.829l-7.074,19.609H816.8l6.74-21.5Z" transform="translate(-802.477 -4410.858)" fill="#d9000d"/>
          </g>
          <g id="Group_8292" data-name="Group 8292" transform="translate(339.486 5.527)">
            <path id="Path_4407" data-name="Path 4407" d="M872.612,4435.818v-14.45h-9.847v17.308l9.847-2.858Z" transform="translate(-862.765 -4421.368)" fill="#d9000d"/>
          </g>
          <g id="Group_8293" data-name="Group 8293" transform="translate(351.85 4.85)">
            <path id="Path_4408" data-name="Path 4408" d="M914.028,4433.774c0-6.745-1.759-13.693-9-13.693-5.455,0-7.2,6.855-7.2,6.855a51.718,51.718,0,0,0-1.322-6.177H886.28s2.261,6.586,2.425,10.059c.131,2.855-1.373,16.747-1.373,16.747h9.9l.808-13.892c.165-2.855,1.49-6.377,3.41-6.377,2.083,0,2.73,2.753,2.73,6.282,0,6.224-1.184,7.871-2.684,7.871a2.778,2.778,0,0,1-1.709-.67v6.125s1.364,1.126,5.327,1.126c6.578,0,8.915-7.251,8.915-14.255Z" transform="translate(-886.28 -4420.081)" fill="#d9000d"/>
          </g>
          <g id="Group_8294" data-name="Group 8294" transform="translate(380.893 5.527)">
            <path id="Path_4409" data-name="Path 4409" d="M961.418,4448.176v-16.037c0-8.887-4.216-10.77-10.527-10.77h-9.375v7.2h7.2c2.125,0,2.849.462,2.849,3.733v15.876Z" transform="translate(-941.515 -4421.369)" fill="#d9000d"/>
          </g>
          <g id="Group_8295" data-name="Group 8295" transform="translate(0 5.623)">
            <path id="Path_4410" data-name="Path 4410" d="M241.995,4448.373v-16.042c0-8.892-4.168-10.779-10.482-10.779H217.2v7.2h11.761c2.477,0,3.205,1.174,3.205,4.233v15.383Zm-14.994,0v-15.383l-9.891,2.412v12.972Z" transform="translate(-217.109 -4421.552)" fill="#d9000d" fill-rule="evenodd"/>
          </g>
          <g id="Group_8296" data-name="Group 8296" transform="translate(27.717 4.958)">
            <path id="Path_4411" data-name="Path 4411" d="M297.567,4433.979c0-6.745-1.738-13.692-8.995-13.692-5.452,0-7.2,6.84-7.2,6.84a50.128,50.128,0,0,0-1.322-6.175H269.823s2.261,6.586,2.434,10.071c.118,2.849-1.364,16.75-1.364,16.75h9.893l.8-13.9c.17-2.849,1.489-6.375,3.411-6.375,2.09,0,2.729,2.751,2.729,6.273,0,6.241-1.2,7.871-2.689,7.871a2.749,2.749,0,0,1-1.7-.671v6.139s1.358,1.123,5.328,1.123c6.552,0,8.9-7.262,8.9-14.253Z" transform="translate(-269.823 -4420.287)" fill="#d9000d"/>
          </g>
          <g id="Group_8297" data-name="Group 8297" transform="translate(58.885 5.623)">
            <path id="Path_4412" data-name="Path 4412" d="M355.224,4427.375v-5.823H329.1v7.2h16.237l-4.258,19.617h10.1l4.041-21Zm-16.281,32.7v-27.131l-9.842,2.4v24.726Z" transform="translate(-329.1 -4421.552)" fill="#d9000d" fill-rule="evenodd"/>
          </g>
          <g id="Group_8298" data-name="Group 8298" transform="translate(89.935 5.623)">
            <path id="Path_4413" data-name="Path 4413" d="M409.458,4437.229v-15.677h-8.951v18.337l8.951-2.66Zm12.411-2.042v-13.636h-8.958v13.179c0,6.027-3.837,8.171-7.966,8.171-4.011,0-7.85-2.144-7.85-8.227v-13.123h-8.942v14.354c0,7.514,5.91,13.283,16.864,13.283,11.811,0,16.851-6.137,16.851-14Z" transform="translate(-388.154 -4421.552)" fill="#d9000d" fill-rule="evenodd"/>
          </g>
          <g id="Group_8299" data-name="Group 8299" transform="translate(127.625 5.623)">
            <path id="Path_4414" data-name="Path 4414" d="M484.723,4448.373v-16.042c0-8.892-4.178-10.779-10.487-10.779H459.914v7.2h11.768c2.465,0,3.193,1.174,3.193,4.233v15.383Zm-15,0v-15.383l-9.886,2.412v12.972Z" transform="translate(-459.835 -4421.552)" fill="#d9000d" fill-rule="evenodd"/>
          </g>
          <g id="Group_8300" data-name="Group 8300" transform="translate(165.335 5.623)">
            <path id="Path_4415" data-name="Path 4415" d="M557.675,4427.375v-5.823H531.554v7.2h16.228l-4.258,19.617h10.1l4.048-21Zm-16.28,32.7v-27.131l-9.841,2.4v24.726Z" transform="translate(-531.554 -4421.552)" fill="#d9000d" fill-rule="evenodd"/>
          </g>
          <g id="Group_8301" data-name="Group 8301" transform="translate(194.881 5.623)">
            <path id="Path_4416" data-name="Path 4416" d="M597.593,4448.372v-26.82h-9.846v26.82Z" transform="translate(-587.747 -4421.552)" fill="#d9000d"/>
          </g>
          <g id="Group_8302" data-name="Group 8302" transform="translate(208.884 5.623)">
            <path id="Path_4417" data-name="Path 4417" d="M624.229,4448.372v-26.82h-9.851v26.82Z" transform="translate(-614.378 -4421.552)" fill="#d9000d"/>
          </g>
          <g id="Group_8303" data-name="Group 8303" transform="translate(222.807 5.623)">
            <path id="Path_4418" data-name="Path 4418" d="M650.689,4436.011v-14.459h-9.831v17.316l9.831-2.857Z" transform="translate(-640.858 -4421.552)" fill="#d9000d"/>
          </g>
          <g id="Group_8304" data-name="Group 8304" transform="translate(236.625 5.623)">
            <path id="Path_4419" data-name="Path 4419" d="M688.447,4437.229v-15.677h-8.954v18.337l8.954-2.66Zm12.4-2.042v-13.636H691.9v13.179c0,6.027-3.847,8.171-7.975,8.171-4,0-7.842-2.144-7.842-8.227v-13.123h-8.949v14.354c0,7.514,5.917,13.283,16.877,13.283,11.806,0,16.834-6.137,16.834-14Z" transform="translate(-667.138 -4421.552)" fill="#d9000d" fill-rule="evenodd"/>
          </g>
        </g>
        <g id="Group_8324" data-name="Group 8324" transform="translate(180.122 35.609)">
          <g id="Group_8306" data-name="Group 8306" transform="translate(0 2.37)">
            <path id="Path_4420" data-name="Path 4420" d="M565.254,4489.864h-1.12v-3.874a2.531,2.531,0,0,0-.306-1.38,1.361,1.361,0,0,0-1.235-.568h-2.916v-.954h2.916a2.524,2.524,0,0,1,2.024.787,3.163,3.163,0,0,1,.637,2.129Zm-4.456,0h-1.12v-3.5l1.12-.659Z" transform="translate(-559.677 -4483.089)" fill="#d9000d"/>
          </g>
          <g id="Group_8307" data-name="Group 8307" transform="translate(12.618 2.37)">
            <path id="Path_4421" data-name="Path 4421" d="M586.678,4489.864h-3v-.953h1.884V4485a1.206,1.206,0,0,0-.153-.683.713.713,0,0,0-.624-.27h-1.107v-.954h1.235a1.682,1.682,0,0,1,1.33.5,2.086,2.086,0,0,1,.439,1.425Z" transform="translate(-583.674 -4483.089)" fill="#d9000d"/>
          </g>
          <g id="Group_8308" data-name="Group 8308" transform="translate(22.931 2.37)">
            <path id="Path_4422" data-name="Path 4422" d="M604.408,4486.8l-1.12.621v-4.332h1.12Z" transform="translate(-603.288 -4483.089)" fill="#d9000d"/>
          </g>
          <g id="Group_8309" data-name="Group 8309" transform="translate(30.811 2.37)">
            <path id="Path_4423" data-name="Path 4423" d="M623.47,4484.042h-.942v5.822h-1.12v-5.822h-3.133v-.954h5.195Z" transform="translate(-618.275 -4483.089)" fill="#d9000d"/>
          </g>
          <g id="Group_8310" data-name="Group 8310" transform="translate(42.613 2.216)">
            <path id="Path_4424" data-name="Path 4424" d="M647.6,4486.3a4.148,4.148,0,0,1-.688,2.525,2.684,2.684,0,0,1-2.3,1.032,3.3,3.3,0,0,1-.943-.13v-1.081a3.5,3.5,0,0,0,.51.2,1.624,1.624,0,0,0,.458.055,1.559,1.559,0,0,0,1.452-.826,3.475,3.475,0,0,0,.395-1.752,3.7,3.7,0,0,0-.345-1.7,1.5,1.5,0,0,0-2.711-.028,5.437,5.437,0,0,0-.547,1.606l-.2,1.092-.46,2.43h-1.159q.129-.619.371-1.855.2-1.066.331-1.867l.012-.128a5.73,5.73,0,0,0-.573-1.854c-.16-.353-.319-.7-.471-1.057h1.224c.2.576.411,1.15.622,1.725a3.118,3.118,0,0,1,.79-1.3,1.961,1.961,0,0,1,1.375-.592,2.56,2.56,0,0,1,2.227,1.028A4.2,4.2,0,0,1,647.6,4486.3Z" transform="translate(-640.722 -4482.797)" fill="#d9000d"/>
          </g>
          <g id="Group_8311" data-name="Group 8311" transform="translate(56.199 2.37)">
            <path id="Path_4425" data-name="Path 4425" d="M672.072,4489.864h-5.513v-.953h3.6v-2.918a2.626,2.626,0,0,0-.293-1.435,1.481,1.481,0,0,0-1.311-.516h-2v-.954h1.986a2.746,2.746,0,0,1,2.095.691,3.093,3.093,0,0,1,.644,2.162v2.969h.788Z" transform="translate(-666.559 -4483.089)" fill="#d9000d"/>
          </g>
          <g id="Group_8312" data-name="Group 8312" transform="translate(76.429)">
            <path id="Path_4426" data-name="Path 4426" d="M710.179,4481.917l-2.7,5.81H706.27l2.676-5.822h-3.911v-3.323h1.12v2.37h4.024Z" transform="translate(-705.035 -4478.582)" fill="#d9000d"/>
          </g>
          <g id="Group_8313" data-name="Group 8313" transform="translate(88.563 2.37)">
            <path id="Path_4427" data-name="Path 4427" d="M729.231,4489.864h-1.12v-6.775h1.12Z" transform="translate(-728.111 -4483.089)" fill="#d9000d"/>
          </g>
          <g id="Group_8314" data-name="Group 8314" transform="translate(96.673 2.37)">
            <path id="Path_4428" data-name="Path 4428" d="M746.846,4484.042h-.239a.737.737,0,0,0-.529.22,1.466,1.466,0,0,0-.316.483,2.431,2.431,0,0,0-.182.69,7.5,7.5,0,0,0-.044.866v3.562h-1.12v-3.11a4.383,4.383,0,0,1,.217-1.537,2.4,2.4,0,0,1,.979-1.175h-2.075v-.954h3.31Z" transform="translate(-743.536 -4483.089)" fill="#d9000d"/>
          </g>
          <g id="Group_8315" data-name="Group 8315" transform="translate(106.834 2.37)">
            <path id="Path_4429" data-name="Path 4429" d="M768.436,4489.864h-1.122v-3.874a2.532,2.532,0,0,0-.3-1.38,1.36,1.36,0,0,0-1.235-.568H762.86v-.954h2.915a2.526,2.526,0,0,1,2.024.787,3.167,3.167,0,0,1,.637,2.129Zm-4.456,0h-1.12v-3.5l1.12-.659Z" transform="translate(-762.86 -4483.089)" fill="#d9000d"/>
          </g>
          <g id="Group_8316" data-name="Group 8316" transform="translate(127.791 2.37)">
            <path id="Path_4430" data-name="Path 4430" d="M809.542,4489.864h-1.12v-3.874a2.63,2.63,0,0,0-.3-1.472,1.629,1.629,0,0,0-1.373-.477h-1.6v4.287a1.545,1.545,0,0,1-.466,1.208,1.807,1.807,0,0,1-1.253.418,2.971,2.971,0,0,1-.409-.02,1.57,1.57,0,0,1-.3-.084v-.992a.715.715,0,0,0,.253.107,1.265,1.265,0,0,0,.294.035.68.68,0,0,0,.764-.773v-4.186h-1.12v-.954H806.8a2.75,2.75,0,0,1,2.127.685,3.306,3.306,0,0,1,.612,2.231Z" transform="translate(-802.718 -4483.089)" fill="#d9000d"/>
          </g>
          <g id="Group_8317" data-name="Group 8317" transform="translate(141.921 2.37)">
            <path id="Path_4431" data-name="Path 4431" d="M830.712,4489.864h-1.12v-6.775h1.12Z" transform="translate(-829.592 -4483.089)" fill="#d9000d"/>
          </g>
          <g id="Group_8318" data-name="Group 8318" transform="translate(150.415 2.37)">
            <path id="Path_4432" data-name="Path 4432" d="M846.864,4486.8l-1.119.621v-4.332h1.119Z" transform="translate(-845.745 -4483.089)" fill="#d9000d"/>
          </g>
          <g id="Group_8319" data-name="Group 8319" transform="translate(158.575 2.37)">
            <path id="Path_4433" data-name="Path 4433" d="M864.269,4489.864h-3v-.953h1.884V4485a1.193,1.193,0,0,0-.154-.683.71.71,0,0,0-.624-.27h-1.107v-.954H862.5a1.683,1.683,0,0,1,1.331.5,2.093,2.093,0,0,1,.438,1.425Z" transform="translate(-861.265 -4483.089)" fill="#d9000d"/>
          </g>
          <g id="Group_8320" data-name="Group 8320" transform="translate(168.8 2.37)">
            <path id="Path_4434" data-name="Path 4434" d="M887.034,4484.22l-2.409,5.642-1.179,0,2.446-5.822h-5.181v-.954h6.327Zm-5.024,8.157H880.89V4486.1l1.121-.54Z" transform="translate(-880.712 -4483.089)" fill="#d9000d"/>
          </g>
          <g id="Group_8321" data-name="Group 8321" transform="translate(182.09 2.37)">
            <path id="Path_4435" data-name="Path 4435" d="M911.564,4489.864h-1.12v-3.874a2.532,2.532,0,0,0-.3-1.38,1.362,1.362,0,0,0-1.237-.568h-2.915v-.954H908.9a2.523,2.523,0,0,1,2.025.787,3.158,3.158,0,0,1,.636,2.129Zm-4.454,0h-1.122v-3.5l1.122-.659Z" transform="translate(-905.988 -4483.089)" fill="#d9000d"/>
          </g>
          <g id="Group_8322" data-name="Group 8322" transform="translate(202.972)">
            <path id="Path_4436" data-name="Path 4436" d="M950.846,4481.917l-2.7,5.81h-1.21l2.677-5.822H945.7v-3.323h1.12v2.37h4.024Z" transform="translate(-945.702 -4478.582)" fill="#d9000d"/>
          </g>
          <g id="Group_8323" data-name="Group 8323" transform="translate(215.04 2.37)">
            <path id="Path_4437" data-name="Path 4437" d="M974.753,4486.613a3.654,3.654,0,0,1-.827,2.424,2.809,2.809,0,0,1-2.266,1.059,2.932,2.932,0,0,1-2.229-.812,3.173,3.173,0,0,1-.777-2.284v-3.911h2.993a2.857,2.857,0,0,1,2.342,1.007A3.843,3.843,0,0,1,974.753,4486.613Zm-1.12-.124a2.932,2.932,0,0,0-.445-1.7,1.745,1.745,0,0,0-1.527-.748h-1.884v2.949a2.45,2.45,0,0,0,.464,1.559,1.664,1.664,0,0,0,1.395.592,1.711,1.711,0,0,0,1.565-.823A3.427,3.427,0,0,0,973.633,4486.489Z" transform="translate(-968.654 -4483.089)" fill="#d9000d"/>
          </g>
        </g>
      </g>
      <g id="Group_8328" data-name="Group 8328" transform="translate(408.118 5.783)">
        <g id="Group_8326" data-name="Group 8326" transform="translate(17.494 8.286)">
          <path id="Path_4438" data-name="Path 4438" d="M1032.4,4443.8c0-2.141-2.55-5.383-5.838-6.186v16.205c0,2.14,2.549,5.383,5.838,6.186Z" transform="translate(-1026.565 -4437.615)" fill="#1a5fa8"/>
        </g>
        <g id="Group_8327" data-name="Group 8327">
          <path id="Path_4439" data-name="Path 4439" d="M1029.25,4421.856H998.163c-4.869,0-4.869,4.868-4.869,4.868v29.227c0,4.869,4.869,4.869,4.869,4.869h31.087c4.869,0,4.869-4.869,4.869-4.869v-29.227C1034.12,4421.856,1029.25,4421.856,1029.25,4421.856Zm-.714,24.491c0,4.236-4.789,9.409-10.38,9.409h-.013l-.017,0c-5.6-.018-10.375-5.179-10.375-9.407v-16.2c-3.3.809-5.839,4.044-5.839,6.18v10.151a1.518,1.518,0,0,1-3.036,0v-10.151c0-4.235,4.79-9.408,10.38-9.408h.021c5.607.014,10.385,5.178,10.385,9.407v16.2c3.3-.809,5.838-4.043,5.838-6.18v-9.973a1.518,1.518,0,1,1,3.036,0Z" transform="translate(-993.294 -4421.856)" fill="#1a5fa8"/>
        </g>
      </g>
    </g>
  </g>
</svg>
